<svg width="300" height="38" viewBox="0 0 300 38" fill="none" xmlns="http://www.w3.org/2000/svg">
<path fill-rule="evenodd" clip-rule="evenodd" d="M17.7878 0H35.5758C45.3998 0 53.3636 7.9639 53.3636 17.7878C53.3636 27.6118 45.3998 35.5758 35.5758 35.5758H17.7878C7.9639 35.5758 0 27.6118 0 17.7878C0 7.9639 7.9639 0 17.7878 0ZM295.894 19.8403C296.462 19.8403 296.994 19.7343 297.491 19.5223C297.986 19.3101 298.423 19.016 298.799 18.6396C299.176 18.2634 299.468 17.8272 299.682 17.3312C299.894 16.8352 300 16.3033 300 15.7354C300 15.1676 299.894 14.6357 299.682 14.1397C299.468 13.6437 299.176 13.2075 298.799 12.8312C298.423 12.4549 297.986 12.1608 297.491 11.9487C296.994 11.7366 296.462 11.6305 295.894 11.6305C295.326 11.6305 294.795 11.7366 294.298 11.9487C293.803 12.1608 293.366 12.4549 292.99 12.8312C292.615 13.2075 292.321 13.6437 292.109 14.1397C291.895 14.6357 291.789 15.1676 291.789 15.7354C291.789 16.3033 291.895 16.8352 292.109 17.3312C292.321 17.8272 292.615 18.2634 292.99 18.6396C293.366 19.016 293.803 19.3101 294.298 19.5223C294.795 19.7343 295.326 19.8403 295.894 19.8403ZM295.894 19.0758C295.279 19.0758 294.719 18.9253 294.214 18.6243C293.71 18.3232 293.306 17.9204 293.006 17.4159C292.705 16.9113 292.555 16.3511 292.555 15.7354C292.555 15.1197 292.705 14.5596 293.006 14.055C293.306 13.5504 293.71 13.1476 294.214 12.8466C294.719 12.5456 295.279 12.3951 295.894 12.3951C296.51 12.3951 297.07 12.5456 297.575 12.8466C298.079 13.1476 298.483 13.5504 298.783 14.055C299.084 14.5596 299.234 15.1197 299.234 15.7354C299.234 16.3511 299.084 16.9113 298.783 17.4159C298.483 17.9204 298.079 18.3232 297.575 18.6243C297.07 18.9253 296.51 19.0758 295.894 19.0758ZM295.165 17.5826V16.223H296.206L296.915 17.5826H297.654L296.847 16.0785L296.856 16.0741C297.024 15.9849 297.166 15.8602 297.28 15.7003L297.318 15.6456C297.44 15.4592 297.5 15.2377 297.5 14.9812C297.5 14.7246 297.442 14.5083 297.323 14.3321C297.206 14.1559 297.057 14.0225 296.877 13.9318C296.698 13.8412 296.511 13.7959 296.32 13.7959H294.504V17.5826H295.165ZM295.165 14.3141H296.121C296.285 14.3141 296.436 14.3654 296.575 14.468C296.712 14.5707 296.782 14.7417 296.782 14.9812C296.782 15.2138 296.712 15.3925 296.575 15.5174C296.436 15.6422 296.279 15.7046 296.105 15.7046L295.165 15.7047V14.3141ZM138.359 11.047C143.604 11.047 147.247 14.8929 147.32 20.756L147.321 20.9343V21.2298C147.321 27.2752 143.739 31.3758 138.359 31.3758C135.673 31.3758 133.442 30.2429 132.1 28.4333L132.024 28.328L131.992 28.2814L131.992 37.7671H128.584V11.3795H131.992L131.992 14.2313L132.016 14.1978C133.312 12.4471 135.695 11.1473 138.081 11.0525L138.221 11.0483L138.359 11.047ZM138.026 13.9382C134.319 13.9382 131.932 16.4489 131.882 20.9367L131.881 21.3776C131.881 26.0107 134.183 28.4845 138.063 28.4845C141.749 28.4845 143.758 26.0503 143.802 21.5274L143.802 21.082C143.802 16.5978 141.445 13.9382 138.026 13.9382ZM73.6922 3.9537C68.6757 3.9537 65.0255 7.07655 65.0255 11.2919C65.0255 15.156 67.1134 17.2118 71.7488 18.3086L72.0725 18.3828C72.1818 18.407 72.2924 18.4308 72.4043 18.4539L72.7442 18.5222C72.8017 18.5333 72.8593 18.5444 72.9173 18.5553L73.2697 18.6192L73.6301 18.6804L73.9989 18.739L74.3063 18.7899L74.6043 18.8421L74.893 18.8954C74.9405 18.9043 74.9875 18.9133 75.034 18.9225L75.3091 18.9777L75.5753 19.0343L75.8325 19.0924L76.0809 19.1522L76.3207 19.2134L76.5522 19.2766L76.7751 19.3414C76.8117 19.3525 76.8477 19.3636 76.8835 19.3747L77.0942 19.4425C79.2634 20.1652 80.0972 21.2267 80.2258 23.0798L80.2361 23.2587C80.2386 23.3191 80.2407 23.3804 80.242 23.4425L80.244 23.6311C80.244 26.4583 77.7815 28.4476 74.3941 28.4476C70.1316 28.4476 68.3213 26.8738 67.6964 23.5237L67.6546 23.287C67.6414 23.2073 67.6287 23.1264 67.6167 23.0446L67.5825 22.7964L67.5632 22.6474H64.1198L64.1399 22.8366C64.7126 28.2113 67.9719 31.3758 74.3941 31.3758C79.7088 31.3758 83.6889 27.9605 83.6889 23.4095C83.6889 19.6006 81.9932 17.5111 78.0019 16.3067L77.6981 16.2179C77.3901 16.1309 77.0691 16.0488 76.7349 15.9711L76.3962 15.8948C76.1674 15.845 75.9328 15.7972 75.6922 15.7511L75.3267 15.6835C75.0801 15.6393 74.8272 15.5969 74.5684 15.5562L74.2589 15.5084L73.8131 15.4348L73.5277 15.3845L73.2518 15.333L72.9852 15.2802L72.7278 15.2262L72.4792 15.1708L72.2396 15.1139C72.1613 15.0947 72.0844 15.0752 72.0087 15.0554L71.7864 14.9954C71.7501 14.9852 71.7141 14.975 71.6785 14.9647L71.4689 14.9021C71.4004 14.8809 71.3332 14.8594 71.2675 14.8376L71.0742 14.7712C70.8535 14.6926 70.6489 14.61 70.4597 14.5228L70.3013 14.4469C69.141 13.8689 68.6025 13.0938 68.4272 11.9713L68.406 11.8196L68.3889 11.6636L68.3759 11.5034L68.3667 11.3388C68.3655 11.311 68.3644 11.2831 68.3636 11.2549L68.3599 11.0837C68.3596 11.0547 68.3596 11.0256 68.3596 10.9963C68.3596 8.49566 70.3154 6.88186 73.6922 6.88186C77.3141 6.88186 79.125 8.23207 79.7298 11.4345L79.7561 11.5738H82.97L82.9491 11.384C82.424 6.61983 79.0794 3.9537 73.6922 3.9537ZM279.49 11.047C285.043 11.047 289.072 15.1182 289.152 20.8704L289.153 21.045V21.3407C289.153 27.222 285.1 31.3758 279.452 31.3758C273.93 31.3758 269.905 27.2307 269.826 21.5502L269.825 21.3776V21.082C269.825 15.2305 273.886 11.047 279.49 11.047ZM279.49 13.9382C275.77 13.9382 273.394 16.658 273.345 20.9433L273.343 21.3776C273.343 25.7266 275.71 28.4845 279.49 28.4845C283.193 28.4845 285.584 25.7465 285.633 21.5146L285.635 21.1191C285.635 16.7376 283.23 13.9382 279.49 13.9382ZM258.035 2.14344V31.0432H254.627V28.1168L254.6 28.1548C253.289 29.9226 250.844 31.2725 248.46 31.3701L248.324 31.3744L248.186 31.3758C242.934 31.3758 239.369 27.6322 239.298 21.7774V21.5992V21.3037C239.298 15.2877 243.076 11.047 248.482 11.047C251.142 11.047 253.168 12.0919 254.497 13.8884L254.576 13.9971L254.627 14.0695V2.14344H258.035ZM248.777 13.9382C245.059 13.9382 242.864 16.5194 242.817 21.0104V21.1559V21.4515C242.817 25.9304 245.093 28.4845 248.519 28.4845C252.246 28.4845 254.686 25.9577 254.736 21.4841L254.738 21.3407V21.045C254.738 16.3574 252.599 13.9382 248.777 13.9382ZM166.928 11.047C172.13 11.047 175.707 14.4111 175.779 20.634L175.78 20.8235V21.9919H161.233L161.239 22.1025C161.461 26.177 163.437 28.3825 167.008 28.481L167.134 28.4837L167.261 28.4845C170.145 28.4845 171.784 27.4486 172.206 25.3683L172.252 25.1227H175.663L175.63 25.3225C174.969 29.1794 171.801 31.3758 167.224 31.3758C161.641 31.3758 157.785 27.4574 157.708 21.5929L157.707 21.4146V21.1191C157.707 15.1969 161.505 11.047 166.928 11.047ZM166.928 13.9382C163.998 13.9382 161.959 15.8616 161.38 19.0984L161.367 19.1747H172.284L172.274 19.0805C171.936 15.6106 170.17 13.9808 167.052 13.939L166.928 13.9382ZM223.047 11.3795H219.639V23.779C219.639 28.8169 222.216 31.3758 226.532 31.3758L226.681 31.3745C229.238 31.3324 231.337 30.2019 232.467 28.4945L232.492 28.453L232.494 31.0432H235.901V11.3795H232.494V23.2617C232.494 26.3806 230.272 28.3738 227.345 28.3738C224.39 28.3738 223.047 26.9125 223.047 23.6311V11.3795ZM193.826 3.9537C188.809 3.9537 185.159 7.07655 185.159 11.2919C185.159 14.5342 186.629 16.5033 189.84 17.7011L190.108 17.7978C190.652 17.9878 191.242 18.1574 191.883 18.3086L192.206 18.3828C192.315 18.407 192.425 18.4308 192.538 18.4539L192.878 18.5222C192.935 18.5333 192.992 18.5444 193.05 18.5553L193.403 18.6192L193.764 18.6804L194.133 18.739L194.439 18.7899L194.737 18.8421L195.026 18.8954C195.074 18.9043 195.121 18.9133 195.167 18.9225L195.443 18.9777L195.708 19.0343L195.966 19.0924L196.215 19.1522L196.453 19.2134L196.686 19.2766L196.909 19.3414C196.946 19.3525 196.98 19.3636 197.017 19.3747L197.227 19.4425L197.43 19.5123C197.496 19.536 197.561 19.5599 197.624 19.5843L197.811 19.6586C199.518 20.362 200.219 21.3671 200.353 22.9921L200.364 23.1687C200.366 23.1984 200.368 23.2285 200.369 23.2587L200.375 23.4425C200.377 23.5046 200.377 23.5675 200.377 23.6311C200.377 26.4583 197.915 28.4476 194.528 28.4476C190.612 28.4476 188.766 27.1196 188.007 24.3065L187.951 24.0901C187.907 23.9072 187.866 23.7185 187.829 23.5237L187.788 23.287L187.75 23.0446C187.744 23.0038 187.738 22.9627 187.733 22.9212L187.697 22.6474H184.252L184.273 22.8366C184.846 28.2113 188.105 31.3758 194.528 31.3758C199.842 31.3758 203.823 27.9605 203.823 23.4095C203.823 19.6958 202.211 17.6166 198.43 16.3987L198.135 16.3067L197.831 16.2179C197.523 16.1309 197.202 16.0488 196.868 15.9711L196.529 15.8948C196.3 15.845 196.066 15.7972 195.825 15.7511L195.46 15.6835C195.213 15.6393 194.96 15.5969 194.702 15.5562L194.392 15.5084L194.093 15.4596L193.802 15.4098L193.522 15.3589L193.251 15.3068C193.205 15.298 193.163 15.2891 193.118 15.2802L192.861 15.2262L192.612 15.1708L192.373 15.1139C192.294 15.0947 192.218 15.0752 192.142 15.0554L191.919 14.9954L191.706 14.9336L191.5 14.8701C191.467 14.8593 191.433 14.8485 191.4 14.8376L191.207 14.7712C189.473 14.1538 188.744 13.2869 188.549 11.8959L188.53 11.7421L188.515 11.5841L188.503 11.4217C188.502 11.3943 188.502 11.3666 188.5 11.3388L188.494 11.1698C188.494 11.1128 188.492 11.0549 188.492 10.9963C188.492 8.49566 190.449 6.88186 193.826 6.88186C197.4 6.88186 199.211 8.19675 199.839 11.309L199.89 11.5738H203.103L203.082 11.384C202.557 6.61983 199.213 3.9537 193.826 3.9537ZM211.809 6.98311H208.401V11.3795H205.631V14.3076H208.401V26.0326C208.401 29.308 210.322 31.3019 213.781 31.3019C214.841 31.3019 215.578 31.1821 216.334 30.9292L216.575 30.8455V27.8884L216.34 27.979C215.659 28.2443 214.934 28.3738 214.038 28.3738L213.95 28.3727C212.534 28.3379 211.809 27.4696 211.809 25.737V14.3076H216.315V11.3795H211.809V6.98311ZM91.0847 11.3795H87.6767V31.0432H91.0847V11.3795ZM117.259 11.047L117.117 11.0481C114.52 11.091 111.995 12.3104 110.697 14.4075L110.671 14.4509L110.651 14.4072C109.633 12.1666 107.616 11.047 104.995 11.047L104.855 11.0482C102.528 11.0902 100.524 12.1767 99.4321 13.8171L99.4041 13.8602L99.404 11.3795H95.996V31.0432H99.404V19.0502C99.404 15.983 101.566 14.049 104.33 14.049C106.985 14.049 108.259 15.4772 108.259 18.6807V31.0432H111.667V19.0502C111.667 15.983 113.83 14.049 116.594 14.049C119.248 14.049 120.523 15.4772 120.523 18.6807V31.0432H123.931V18.9024C123.931 13.7088 121.33 11.047 117.259 11.047ZM266.354 11.3795H262.946V31.0432H266.354V11.3795ZM154.237 2.14344H150.792V31.0432H154.237V2.14344ZM264.594 3.28872C263.392 3.28872 262.392 4.28889 262.392 5.49166C262.392 6.69444 263.392 7.69463 264.594 7.69463C265.798 7.69463 266.798 6.69444 266.798 5.49166C266.798 4.28889 265.798 3.28872 264.594 3.28872ZM89.3252 3.28872C88.1227 3.28872 87.1226 4.28889 87.1226 5.49166C87.1226 6.69444 88.1227 7.69463 89.3252 7.69463C90.5279 7.69463 91.528 6.69444 91.528 5.49166C91.528 4.28889 90.5279 3.28872 89.3252 3.28872Z" fill="white"/>
</svg>
